<svg width="560" height="722" viewBox="0 0 560 722" fill="none" xmlns="http://www.w3.org/2000/svg">
<g opacity="0.8" filter="url(#filter0_f_114_33490)">
<path fill-rule="evenodd" clip-rule="evenodd" d="M215.676 454.183C195.554 440.363 217.949 387.016 193.652 384.876C159.041 381.826 143.511 451.182 109.351 444.815C84.8012 440.239 115.076 394.604 126.555 372.369C135.38 355.274 164.351 351.364 167.405 332.36C169.559 318.952 140.697 318.663 137.297 305.516C134.812 295.905 146.235 287.222 154.211 281.337C161.993 275.596 178.848 282.058 181.657 272.789C191.35 240.804 154.346 166.242 186.893 173.495C224.54 181.885 207.985 247.172 224.18 282.265C226.577 287.462 234.265 288.567 239.975 288.528C252.417 288.442 263.993 280.846 276.391 281.905C294.12 283.42 315.809 282.477 327.416 295.999C336.623 306.724 323.202 323.902 324.535 337.989C326.162 355.177 346.354 374.121 336.127 388.011C324.713 403.513 297.4 390.505 279.94 398.555C268.327 403.91 263.288 417.683 253.612 426.059C241.606 436.452 228.762 463.171 215.676 454.183Z" fill="#C2E1B7"/>
<path fill-rule="evenodd" clip-rule="evenodd" d="M384.847 295.756C399.326 301.298 419.652 275.928 432.109 286.231C444.303 296.316 440.151 323.436 442.184 343.178C443.823 359.101 394.257 335.421 391.505 352.001C388.978 367.222 357.975 400.599 360.005 415.001C363.879 442.496 466.642 474.532 458.646 502.983C451.899 526.984 418.337 500.423 403.544 518.14C387.246 537.659 396.279 576.175 380.55 596.515C367.107 613.897 338.803 631.406 328.908 614.65C311.566 585.28 347.23 514.781 322.003 497.368C298.939 481.447 267.978 575.245 245.902 557.353C226.308 541.473 278.024 499.522 284.262 466.78C286.836 453.273 272.079 447.546 269.154 435.314C265.858 421.528 267.069 406.055 266.185 391.182C264.821 368.246 256.1 345.933 262.466 322.856C268.366 301.47 283.963 284.428 298.974 272.327C314.051 260.173 332.331 249.751 347.888 253.995C364.574 258.548 368.646 289.555 384.847 295.756Z" fill="#BBD3E6"/>
<path fill-rule="evenodd" clip-rule="evenodd" d="M315.776 183.691C318.363 187.334 325.419 186.046 329.031 183.425C356.652 163.385 375.531 103.64 406.538 117.841C434.784 130.778 350.499 166.432 357.97 196.679C363.749 220.077 408.901 193.517 428.627 207.271C441.443 216.207 450.262 242.551 438.462 252.801C420.894 268.062 392.777 257.055 369.59 258.553C360.085 259.168 348.254 252.589 341.265 259.083C331.985 267.707 337.196 284.596 330.191 295.165C321.167 308.781 310.598 323.649 295.11 328.725C281.183 333.289 262.557 331.174 252.273 320.703C241.019 309.245 243.494 290.054 241.455 274.096C239.955 262.354 246.094 249.919 241.819 238.886C236.973 226.377 209.374 220.126 216.037 208.49C225.03 192.782 262.324 211.029 267.674 193.727C274.292 172.322 238.429 155.886 239.227 133.489C239.766 118.358 258.325 93.3604 270.953 101.642C297.192 118.85 297.584 158.073 315.776 183.691Z" fill="#F7C6BC"/>
</g>
<defs>
<filter id="filter0_f_114_33490" x="0.00488281" y="0.00134277" width="559.084" height="721.422" filterUnits="userSpaceOnUse" color-interpolation-filters="sRGB">
<feFlood flood-opacity="0" result="BackgroundImageFix"/>
<feBlend mode="normal" in="SourceGraphic" in2="BackgroundImageFix" result="shape"/>
<feGaussianBlur stdDeviation="50" result="effect1_foregroundBlur_114_33490"/>
</filter>
</defs>
</svg>
